<svg width="24" height="24" viewBox="0 0 24 24" fill="none" xmlns="http://www.w3.org/2000/svg">
<path d="M18 10C18 9.73479 17.8946 9.48043 17.7071 9.2929C17.5196 9.10536 17.2652 9 17 9H5.40999L7.70999 6.71C7.89829 6.5217 8.00408 6.2663 8.00408 6C8.00408 5.7337 7.89829 5.47831 7.70999 5.29C7.52168 5.1017 7.26629 4.99591 6.99999 4.99591C6.73369 4.99591 6.47829 5.1017 6.28999 5.29L2.28999 9.29C2.15123 9.43063 2.05723 9.6092 2.01986 9.80319C1.98248 9.99718 2.00341 10.1979 2.07999 10.38C2.15501 10.5626 2.2824 10.7189 2.44613 10.8293C2.60985 10.9396 2.80256 10.999 2.99999 11H17C17.2652 11 17.5196 10.8946 17.7071 10.7071C17.8946 10.5196 18 10.2652 18 10ZM21.92 13.62C21.845 13.4374 21.7176 13.2811 21.5538 13.1707C21.3901 13.0604 21.1974 13.001 21 13H6.99999C6.73477 13 6.48042 13.1054 6.29288 13.2929C6.10534 13.4804 5.99999 13.7348 5.99999 14C5.99999 14.2652 6.10534 14.5196 6.29288 14.7071C6.48042 14.8946 6.73477 15 6.99999 15H18.59L16.29 17.29C16.1963 17.383 16.1219 17.4936 16.0711 17.6154C16.0203 17.7373 15.9942 17.868 15.9942 18C15.9942 18.132 16.0203 18.2627 16.0711 18.3846C16.1219 18.5064 16.1963 18.617 16.29 18.71C16.383 18.8037 16.4936 18.8781 16.6154 18.9289C16.7373 18.9797 16.868 19.0058 17 19.0058C17.132 19.0058 17.2627 18.9797 17.3846 18.9289C17.5064 18.8781 17.617 18.8037 17.71 18.71L21.71 14.71C21.8487 14.5694 21.9427 14.3908 21.9801 14.1968C22.0175 14.0028 21.9966 13.8021 21.92 13.62Z" fill="black"/>
</svg>
