<svg width="24" height="24" viewBox="0 0 24 24" fill="none" xmlns="http://www.w3.org/2000/svg">
<path fill-rule="evenodd" clip-rule="evenodd" d="M21.5999 11.9998V19.1997C21.6 19.8052 21.3714 20.3884 20.9597 20.8323C20.548 21.2763 19.9837 21.5483 19.3799 21.5937L19.1999 21.5997H17.5415L17.8727 22.2633C18.0086 22.5369 18.035 22.852 17.9465 23.1444C17.8581 23.4369 17.6614 23.6845 17.3967 23.8369C17.1319 23.9894 16.819 24.0351 16.5217 23.9648C16.2244 23.8944 15.9651 23.7134 15.7967 23.4585L15.7271 23.3361L14.8584 21.5997H9.14164L8.27285 23.3361C8.13606 23.61 7.89969 23.8213 7.61217 23.9267C7.32464 24.0321 7.0077 24.0236 6.72626 23.9029C6.44483 23.7821 6.22018 23.5584 6.09834 23.2775C5.9765 22.9965 5.96668 22.6796 6.07088 22.3917L6.12728 22.2633L6.45848 21.5997H4.8001C4.19462 21.5999 3.61144 21.3712 3.16747 20.9595C2.7235 20.5478 2.45155 19.9835 2.40614 19.3797L2.40014 19.1997V11.9998H21.5999ZM13.2 15.5998H10.8C10.4818 15.5998 10.1765 15.7262 9.9515 15.9512C9.72646 16.1763 9.60003 16.4815 9.60003 16.7998C9.60003 17.118 9.72646 17.4232 9.9515 17.6483C10.1765 17.8733 10.4818 17.9997 10.8 17.9997H13.2C13.5182 17.9997 13.8235 17.8733 14.0485 17.6483C14.2735 17.4232 14.4 17.118 14.4 16.7998C14.4 16.4815 14.2735 16.1763 14.0485 15.9512C13.8235 15.7262 13.5182 15.5998 13.2 15.5998ZM19.1999 1.2032e-07C19.8054 -0.000191492 20.3886 0.228484 20.8325 0.640187C21.2765 1.05189 21.5484 1.61619 21.5939 2.21997L21.5999 2.39996V9.59986H2.40014V2.39996C2.39995 1.79448 2.62862 1.2113 3.04033 0.767331C3.45203 0.32336 4.01633 0.0514113 4.62011 0.00600017L4.8001 1.2032e-07H19.1999ZM13.2 3.59995H10.8C10.4942 3.60029 10.2 3.7174 9.97758 3.92736C9.75518 4.13732 9.62135 4.42428 9.60343 4.7296C9.5855 5.03493 9.68484 5.33558 9.88115 5.57012C10.0775 5.80466 10.3559 5.95539 10.6596 5.99151L10.8 5.99991H13.2C13.5058 5.99957 13.8 5.88246 14.0224 5.6725C14.2448 5.46254 14.3786 5.17558 14.3966 4.87025C14.4145 4.56493 14.3152 4.26428 14.1188 4.02974C13.9225 3.7952 13.6441 3.64447 13.3404 3.60835L13.2 3.59995Z" fill="#121212"/>
</svg>
