<svg width="24" height="24" viewBox="0 0 24 24" fill="none" xmlns="http://www.w3.org/2000/svg">
<path d="M20.5999 19.1997V19.2C20.6 19.5532 20.4666 19.8934 20.2264 20.1524C19.9904 20.4069 19.6683 20.5646 19.3229 20.595L19.1832 20.5997H17.5415H15.9248L16.6468 22.0462L16.9771 22.7081C16.9772 22.7082 16.9772 22.7084 16.9773 22.7086C16.9998 22.754 17.0041 22.8064 16.9894 22.8549C16.9746 22.9036 16.9419 22.9449 16.8977 22.9703C16.8536 22.9957 16.8015 23.0033 16.7519 22.9916C16.7087 22.9814 16.6703 22.9571 16.6426 22.9229L16.6096 22.8648L15.7527 21.1522L15.4762 20.5997H14.8584H9.14164H8.5238L8.24734 21.1522L7.37855 22.8886L7.37818 22.8894C7.35538 22.935 7.31599 22.9702 7.26807 22.9878C7.22015 23.0053 7.16733 23.0039 7.12043 22.9838C7.07353 22.9637 7.03609 22.9264 7.01578 22.8796C6.99806 22.8387 6.99456 22.7933 7.00551 22.7505L7.03299 22.6879L7.35323 22.0462L8.07521 20.5997H6.45848H4.80011H4.79979C4.4466 20.5998 4.10641 20.4664 3.84743 20.2262C3.59287 19.9902 3.43526 19.6681 3.4048 19.3227L3.40014 19.1831V12.9998H20.5999V19.1997ZM19.1999 1L19.2002 1C19.5534 0.999888 19.8936 1.13328 20.1526 1.37344C20.4071 1.60949 20.5647 1.93154 20.5952 2.27693L20.5999 2.41662V8.59986H3.40014V2.39996L3.40014 2.39965C3.40003 2.04645 3.53342 1.70627 3.77358 1.44729C4.00964 1.19273 4.33169 1.03512 4.67709 1.00466L4.81677 1H19.1999Z" stroke="#121212" stroke-width="2"/>
<path d="M10.864 4.78827L13.115 4.78827" stroke="#121212" stroke-width="2.5" stroke-linecap="round"/>
<path d="M10.864 16.834L13.115 16.834" stroke="#121212" stroke-width="2.5" stroke-linecap="round"/>
</svg>
