<svg width="48" height="48" viewBox="0 0 48 48" fill="none" xmlns="http://www.w3.org/2000/svg">
<path d="M12.9538 24C18.1909 24 22.4364 19.8132 22.4364 14.6487C22.4364 9.48408 18.1909 5.29736 12.9538 5.29736C7.71669 5.29736 3.47119 9.48408 3.47119 14.6487C3.47119 19.8132 7.71669 24 12.9538 24Z" fill="black"/>
<path d="M31.9191 24C37.1562 24 41.4017 19.8132 41.4017 14.6487C41.4017 9.48408 37.1562 5.29736 31.9191 5.29736C26.682 5.29736 22.4365 9.48408 22.4365 14.6487C22.4365 19.8132 26.682 24 31.9191 24Z" fill="#FF693A"/>
<path d="M44.5288 5.29736H41.4016V8.3813H44.5288V5.29736Z" fill="#FF693A"/>
<path d="M12.9538 42.7026C18.1909 42.7026 22.4364 38.5159 22.4364 33.3513C22.4364 28.1867 18.1909 24 12.9538 24C7.71669 24 3.47119 28.1867 3.47119 33.3513C3.47119 38.5159 7.71669 42.7026 12.9538 42.7026Z" fill="black"/>
<path d="M31.9191 42.7026C37.1562 42.7026 41.4017 38.5159 41.4017 33.3513C41.4017 28.1867 37.1562 24 31.9191 24C26.682 24 22.4365 28.1867 22.4365 33.3513C22.4365 38.5159 26.682 42.7026 31.9191 42.7026Z" fill="black"/>
</svg>
