<svg width="25" height="24" viewBox="0 0 25 24" fill="none" xmlns="http://www.w3.org/2000/svg">
<path d="M12.5968 6.74765C12.4388 6.74766 12.2836 6.7881 12.1468 6.86491C12.01 6.94172 11.8964 7.0522 11.8174 7.18524C11.6972 7.38461 11.5008 7.52965 11.2711 7.58872C11.0413 7.64779 10.7969 7.61609 10.5911 7.50054C10.3853 7.38498 10.2348 7.19496 10.1726 6.97193C10.1103 6.7489 10.1413 6.51097 10.2587 6.31007C10.4511 5.98694 10.7121 5.70743 11.0244 5.49019C11.3366 5.27294 11.6929 5.12297 12.0695 5.05026C12.4461 4.97755 12.8343 4.98379 13.2082 5.06856C13.5821 5.15333 13.9331 5.31468 14.2378 5.54184C14.5425 5.76901 14.7939 6.05675 14.9751 6.38589C15.1564 6.71502 15.2634 7.07797 15.289 7.4505C15.3146 7.82304 15.2582 8.1966 15.1235 8.54626C14.9889 8.89591 14.7791 9.21362 14.5082 9.47818L14.2814 9.69522C14.0856 9.87035 13.9033 10.0593 13.7361 10.2606C13.5417 10.5021 13.4967 10.6509 13.4967 10.7507C13.4967 10.9327 13.5993 11.1007 13.7631 11.1883L20.4063 14.7782C20.8549 15.0206 21.208 15.401 21.4102 15.8596C21.6124 16.3183 21.6523 16.8293 21.5236 17.3124C21.3949 17.7955 21.1048 18.2233 20.699 18.5288C20.2932 18.8342 19.7946 19 19.2814 19H5.9157C5.40238 19.0003 4.90348 18.8349 4.49735 18.5296C4.09123 18.2243 3.80089 17.7964 3.67194 17.3132C3.54299 16.83 3.58273 16.3189 3.78491 15.86C3.9871 15.4012 4.34028 15.0207 4.78899 14.7782L9.46141 12.249C9.5647 12.1931 9.67829 12.1576 9.7957 12.1444C9.9131 12.1312 10.032 12.1407 10.1457 12.1722C10.2593 12.2038 10.3655 12.2568 10.4581 12.3282C10.5507 12.3996 10.6279 12.4881 10.6853 12.5885C10.7427 12.689 10.7793 12.7994 10.7928 12.9136C10.8063 13.0278 10.7966 13.1434 10.7642 13.254C10.7318 13.3645 10.6773 13.4677 10.6038 13.5578C10.5304 13.6478 10.4394 13.7229 10.3361 13.7788L5.66552 16.308C5.56529 16.362 5.48638 16.447 5.44123 16.5494C5.39607 16.6518 5.38723 16.766 5.41609 16.8738C5.44495 16.9817 5.50988 17.0772 5.60065 17.1452C5.69143 17.2132 5.80289 17.25 5.9175 17.2497H19.2814C19.396 17.25 19.5075 17.2132 19.5983 17.1452C19.689 17.0772 19.754 16.9817 19.7828 16.8738C19.8117 16.766 19.8028 16.6518 19.7577 16.5494C19.7125 16.447 19.6336 16.362 19.5334 16.308L12.8865 12.7198C12.5265 12.5238 12.2266 12.2381 12.0178 11.892C11.809 11.5459 11.6989 11.1519 11.6986 10.7507C11.6986 10.089 12.0136 9.56219 12.3196 9.18237C12.5536 8.89006 12.8487 8.61001 13.0773 8.39297L13.2357 8.24069C13.3613 8.1182 13.4467 7.96227 13.4812 7.7926C13.5157 7.62292 13.4977 7.44711 13.4296 7.28736C13.3614 7.12761 13.2461 6.99109 13.0982 6.89503C12.9503 6.79898 12.7746 6.74769 12.5968 6.74765Z" fill="#FF693A"/>
</svg>
