<svg width="24" height="24" viewBox="0 0 24 24" fill="none" xmlns="http://www.w3.org/2000/svg">
<path d="M3 6.75H3.5C4.05228 6.75 4.5 7.19772 4.5 7.75V17.25M4.5 17.25H3M4.5 17.25H6M7.5 6.75H12.5C13.0523 6.75 13.5 7.19772 13.5 7.75V11C13.5 11.5523 13.0523 12 12.5 12H9.25C8.69772 12 8.25 12.4477 8.25 13V16.25C8.25 16.8023 8.69772 17.25 9.25 17.25H14.25M15.75 6.75H20C20.5523 6.75 21 7.19772 21 7.75V12M21 12H16.5M21 12V16.25C21 16.8023 20.5523 17.25 20 17.25H15.75" stroke="white" stroke-width="2"/>
</svg>
