<svg width="24" height="24" viewBox="0 0 24 24" fill="none" xmlns="http://www.w3.org/2000/svg">
<path d="M5 4.125C4.51675 4.125 4.125 4.51675 4.125 5V12.875C4.125 13.3582 4.51675 13.75 5 13.75C5.48325 13.75 5.875 13.3582 5.875 12.875V5.875H12.875C13.3582 5.875 13.75 5.48325 13.75 5C13.75 4.51675 13.3582 4.125 12.875 4.125H5ZM19 19.875C19.4832 19.875 19.875 19.4832 19.875 19V11.125C19.875 10.6418 19.4832 10.25 19 10.25C18.5168 10.25 18.125 10.6418 18.125 11.125V18.125H11.125C10.6418 18.125 10.25 18.5168 10.25 19C10.25 19.4832 10.6418 19.875 11.125 19.875H19ZM4.38128 5.61872L18.3813 19.6187L19.6187 18.3813L5.61872 4.38128L4.38128 5.61872Z" fill="#121212"/>
</svg>
