<svg width="24" height="24" viewBox="0 0 24 24" fill="none" xmlns="http://www.w3.org/2000/svg">
<path d="M3.66667 22C3.66667 22 2 22 2 20.3333C2 18.6667 3.66667 13.6667 12 13.6667C20.3333 13.6667 22 18.6667 22 20.3333C22 22 20.3333 22 20.3333 22H3.66667ZM12 12C13.3261 12 14.5979 11.4732 15.5355 10.5355C16.4732 9.59785 17 8.32608 17 7C17 5.67392 16.4732 4.40215 15.5355 3.46447C14.5979 2.52678 13.3261 2 12 2C10.6739 2 9.40215 2.52678 8.46447 3.46447C7.52678 4.40215 7 5.67392 7 7C7 8.32608 7.52678 9.59785 8.46447 10.5355C9.40215 11.4732 10.6739 12 12 12Z" fill="#121212"/>
</svg>
