<svg width="24" height="24" viewBox="0 0 24 24" fill="none" xmlns="http://www.w3.org/2000/svg">
<g clip-path="url(#clip0_2205_2844)">
<path fill-rule="evenodd" clip-rule="evenodd" d="M8.17345 4.39516C9.43413 4.48651 10.7478 5.10105 12.0052 6.34481C13.2624 5.1014 14.5749 4.48802 15.8344 4.3987C17.2559 4.29789 18.5125 4.87241 19.4218 5.77885C21.2093 7.56103 21.7707 10.7859 19.5525 13.0041C19.5451 13.0115 19.5374 13.0188 19.5295 13.0259L12.4368 19.4506C12.1919 19.6724 11.8186 19.6724 11.5737 19.4506L4.48092 13.0259C4.47308 13.0188 4.46541 13.0115 4.45793 13.0041C2.22821 10.7743 2.78656 7.5491 4.58 5.76831C5.49143 4.8633 6.75064 4.29207 8.17345 4.39516Z" fill="black"/>
</g>
<defs>
<clipPath id="clip0_2205_2844">
<rect width="18" height="18" fill="white" transform="translate(3 3)"/>
</clipPath>
</defs>
</svg>
