<svg width="251" height="193" viewBox="0 0 251 193" fill="none" xmlns="http://www.w3.org/2000/svg">
<path d="M183.546 50.1714L188.31 47.429L189.675 49.8042L194.427 47.0676L195.803 49.46L200.601 46.7004L201.977 49.0928C203.583 48.1691 205.125 47.2798 206.73 46.3562L208.106 48.7485L210.496 47.3716L211.861 49.7411L219.044 45.6046L220.437 48.0257C219.651 48.4789 218.866 48.9264 218.081 49.3796L219.422 51.7146L221.761 50.3664L220.408 48.0142C221.973 47.1135 223.533 46.2127 225.161 45.2776L226.525 47.6585L231.329 44.8932C231.816 45.7365 232.264 46.5225 232.716 47.3085C231.931 47.7618 231.146 48.2093 230.36 48.6625L231.702 50.9975L234.041 49.6493L232.688 47.297L235.067 45.9259L236.437 48.3068L238.81 46.9413L240.186 49.3395L242.583 47.9626L245.329 52.7473L247.731 51.3647L250.477 56.138L248.075 57.5206L250.821 62.2997L248.447 63.6651L249.817 66.046C248.229 66.964 246.636 67.8762 245.048 68.7941L243.678 66.4132L236.535 70.5267L235.17 68.1516L232.797 69.517L231.432 67.1418C229.036 68.5187 226.686 69.8727 224.243 71.2783C223.756 70.4292 223.303 69.6432 222.85 68.8515C223.636 68.3983 224.421 67.9508 225.207 67.4975L223.865 65.1625L221.526 66.5107L222.879 68.863L220.5 70.2341L219.136 67.859C217.53 68.7826 215.988 69.6719 214.377 70.5956L213.001 68.2032L210.611 69.5801L209.246 67.2049L204.442 69.9702L203.049 67.5492C203.835 67.0959 204.62 66.6484 205.406 66.1952L204.064 63.8602L201.725 65.2084L203.078 67.5606L200.699 68.9318L199.335 66.5566L194.582 69.2932L191.842 64.5199L184.641 68.6622L183.254 66.2411C184.039 65.7879 184.825 65.3404 185.61 64.8871L184.269 62.5521L181.93 63.9003L183.283 66.2526L180.904 67.6237L179.539 65.2486L174.787 67.9852L172.046 63.2119L164.846 67.3541L163.459 64.933C164.244 64.4798 165.03 64.0323 165.815 63.5791L164.473 61.244L162.135 62.5923L163.487 64.9445L161.114 66.3099L159.744 63.929C157.336 65.3174 154.991 66.6656 152.561 68.0655L151.173 65.6559C151.959 65.2027 152.744 64.7552 153.53 64.3019L152.188 61.9669L149.849 63.3151L151.202 65.6674L148.829 67.0328L147.459 64.6519C145.051 66.0403 142.706 67.3885 140.275 68.7884L138.888 66.3788C139.673 65.9255 140.459 65.478 141.244 65.0248L139.903 62.6898L137.564 64.038L138.917 66.3903L136.538 67.7614L135.168 65.3805C133.562 66.3042 132.014 67.1935 130.409 68.1171L127.675 63.361L125.278 64.738L126.603 67.0443L124.229 68.4097L122.899 66.0977L120.497 67.4803L119.104 65.0535V65.0822C119.878 64.629 120.664 64.1815 121.449 63.7282L120.067 61.3244L117.717 62.6783H117.746C117.287 61.8866 116.823 61.0834 116.364 60.2802V60.3089C117.144 59.8556 117.929 59.4024 118.76 58.9262L117.379 56.5224V56.5511C118.17 56.0863 118.967 55.6159 119.764 55.1512C120.216 55.9372 120.664 56.7232 121.116 57.5092L123.45 56.1667L122.103 53.8259L119.752 55.1799C119.299 54.3767 118.846 53.5735 118.388 52.7645V52.7932C119.167 52.34 119.953 51.8868 120.784 51.4106L119.402 49.0067V49.0354C120.165 48.5936 120.933 48.1519 121.764 47.67L123.123 50.0279L125.542 48.6338L126.93 51.0434C126.144 51.4966 125.359 51.9441 124.573 52.3974L125.915 54.7324L128.254 53.3842L126.901 51.0319L129.28 49.6608L130.644 52.0359L135.397 49.2993L138.131 54.0554L140.522 52.6785L139.198 50.3779L141.588 49.001L142.918 51.3188L145.292 49.9533L146.667 52.3457L149.058 50.9688L150.422 53.3383L157.611 49.2018L159.004 51.6229C158.219 52.0761 157.434 52.5236 156.648 52.9768L157.99 55.3118L160.329 53.9636L158.976 51.6114L161.349 50.2459L162.719 52.6269L169.902 48.4904L171.29 50.9C170.504 51.3532 169.719 51.8007 168.934 52.2539L170.275 54.589L172.614 53.2407L171.261 50.8885L176.014 48.1519L177.378 50.5328L182.182 47.7675L183.569 50.1828C182.784 50.6361 181.999 51.0836 181.213 51.5368L182.555 53.8718L184.894 52.5236L183.541 50.1714H183.546ZM124.883 58.582L122.55 59.9245L123.874 62.2251L126.207 60.8826L124.883 58.582ZM129.635 55.8397L127.314 57.1764L128.644 59.4885L130.965 58.1517L129.635 55.8397ZM135.747 55.4266L134.405 53.0973L132.089 54.4283L133.43 56.7576L135.747 55.4266ZM130.065 61.9382L131.407 64.2732L133.711 62.948L132.37 60.613L130.065 61.9382ZM137.151 57.8649L134.824 59.2016L136.154 61.5194L138.481 60.1827L137.151 57.8649ZM141.926 55.134L139.616 56.465L140.952 58.7828L143.262 57.4518L141.926 55.134ZM143.669 63.5618L145.991 62.2251L144.661 59.913L142.339 61.2498L143.669 63.5618ZM147.103 58.4845L148.439 60.8138L150.755 59.4827L149.419 57.1535L147.103 58.4845ZM151.89 55.7249L153.232 58.0599L155.53 56.7346L154.189 54.3996L151.89 55.7249ZM159.4 57.7731L160.73 60.0909L163.035 58.7656L161.705 56.4478L159.4 57.7731ZM175.331 58.0542L174.001 55.7421L171.685 57.0731L173.015 59.3852L175.331 58.0542ZM180.52 61.4047L182.83 60.0737L181.5 57.7616L179.19 59.0926L180.52 61.4047ZM195.132 59.3623L193.802 57.0502L191.486 58.3812L192.816 60.6933L195.132 59.3623ZM204.683 53.8718L203.347 51.5483L201.037 52.8793L202.373 55.2028L204.683 53.8718ZM201.324 59.0639L199.002 60.4007L200.332 62.7127L202.654 61.376L201.324 59.0639ZM210.88 53.562L208.547 54.9045L209.871 57.2108L212.205 55.8683L210.88 53.562ZM213.621 58.3583L211.287 59.7007L212.612 62.0013L214.945 60.6588L213.621 58.3583ZM223.148 52.8621L220.838 54.1931L222.174 56.5109L224.484 55.1799L223.148 52.8621ZM233.427 59.6491L231.094 60.9916L232.418 63.2979L234.752 61.9554L233.427 59.6491ZM240.616 55.4954L241.958 57.8247L244.274 56.4937L242.932 54.1644L240.616 55.4954ZM239.923 65.3461L242.239 64.0093L240.914 61.6973L238.598 63.034L239.923 65.3461Z" fill="#FF693A"/>
<path d="M39.4588 9.25392C38.983 8.45646 38.5129 7.659 38.0371 6.8558C38.834 6.39682 39.6251 5.93785 40.4219 5.48462C40.8863 6.28208 41.3449 7.07954 41.8093 7.87701C41.0182 8.33598 40.227 8.78921 39.4302 9.24818H39.4588V9.25392Z" fill="#FF693A"/>
<path d="M44.1768 6.51161C43.7182 5.71415 43.2653 4.91095 42.8066 4.11349C43.6035 3.65451 44.3946 3.19554 45.1915 2.74231C45.6558 3.53977 46.1145 4.33723 46.5788 5.1347C45.7762 5.59367 44.9794 6.05838 44.1768 6.51735V6.51161Z" fill="#FF693A"/>
<path d="M48.9523 3.7693C48.4937 2.97184 48.0408 2.16864 47.5822 1.37118C48.379 0.912205 49.1701 0.453234 49.967 0C50.4313 0.797462 50.89 1.59492 51.3543 2.39239L48.9523 3.77504V3.7693Z" fill="#FF693A"/>
<path d="M99.2172 41.5254L100.582 43.9006L102.966 42.5294L104.354 44.9447V44.916C103.58 45.3693 102.794 45.8168 102.009 46.27L103.391 48.6739L105.741 47.3199H105.712C106.177 48.1116 106.647 48.9091 107.111 49.7066C106.326 50.1598 105.54 50.6073 104.755 51.0605L106.097 53.3955L108.435 52.0473L107.083 49.6951C107.885 49.2361 108.682 48.7771 109.485 48.3124C109.937 49.0984 110.385 49.8844 110.838 50.6704L113.171 49.3279L111.824 46.9872L109.473 48.3411C109.02 47.5379 108.567 46.7347 108.109 45.9258V45.9545C109.668 45.0537 111.227 44.153 112.855 43.2178L115.584 47.9625L117.992 46.5798L119.379 48.9952V48.9665C118.6 49.4197 117.814 49.8729 116.983 50.3491L118.365 52.753V52.7243C117.574 53.189 116.777 53.6594 115.98 54.1242C115.527 53.3382 115.08 52.5522 114.627 51.7662L112.294 53.1087L113.641 55.4494L115.991 54.0955C116.444 54.8987 116.897 55.7019 117.356 56.5108V56.4821C116.576 56.9354 115.791 57.3886 114.959 57.8648L116.341 60.2686V60.2399C115.55 60.6989 114.747 61.1636 113.945 61.6226H113.973C113.52 60.8423 113.068 60.0564 112.592 59.2245L110.19 60.6071H110.218C109.765 59.8211 109.307 59.0237 108.854 58.2262L111.176 56.8895L109.817 54.52L107.512 55.8453C107.983 56.66 108.43 57.446 108.883 58.2319C108.074 58.6794 107.26 59.1269 106.452 59.5744L105.116 57.2509L102.749 58.6106L104.073 60.9169C104.887 60.4465 105.672 59.999 106.458 59.5458C106.911 60.3604 107.363 61.1808 107.816 61.9955V61.9668C107.037 62.4201 106.251 62.8733 105.42 63.3495L106.802 65.7533V65.7247C106.039 66.1664 105.265 66.6082 104.434 67.0901L103.064 64.7034L100.65 66.0918H100.679C100.215 65.3001 99.7446 64.5026 99.2802 63.7052L101.631 62.3512L100.266 59.9818L97.9158 61.3357C97.4572 60.5325 96.9929 59.7351 96.5342 58.9319L98.9191 57.5607L97.5489 55.1741C98.3515 54.7151 99.1484 54.2504 99.951 53.7914C100.404 54.5774 100.851 55.3634 101.304 56.1494L103.637 54.8069L102.29 52.4661L99.9395 53.8201L98.5579 51.4162L100.908 50.0623L99.5439 47.6928L97.1935 49.0468C96.7406 48.2436 96.282 47.4404 95.8291 46.6314V46.6601C96.6088 46.2069 97.3941 45.7537 98.2254 45.2775L96.8438 42.8736V42.9023C97.6349 42.4433 98.4375 41.9786 99.2401 41.5197H99.2114L99.2172 41.5254Z" fill="#FF693A"/>
<path d="M94.522 66.4648L92.1486 67.8302L90.7785 65.4435L88.365 66.8319L88.3937 66.8377C87.9293 66.0402 87.4592 65.2427 86.9949 64.4395L89.3797 63.0684L88.0096 60.6817L90.4116 59.2991L91.7817 61.6857L94.1666 60.3145L95.5482 62.7184C94.7628 63.1716 93.9774 63.6249 93.1461 64.1011L94.5163 66.4877V66.459L94.522 66.4648Z" fill="#FF693A"/>
<path d="M115.338 64.015L112.959 65.3805L114.317 67.7442L111.927 69.1211L110.591 66.7918L108.2 68.1687L106.807 65.7477V65.7763C107.587 65.3231 108.372 64.8699 109.204 64.3937L107.822 61.9898V62.0185C108.613 61.5595 109.416 61.0948 110.218 60.6359H110.19C110.643 61.4161 111.095 62.2021 111.571 63.034L113.973 61.6513H113.945C114.403 62.4431 114.868 63.2463 115.326 64.0495V64.0208L115.338 64.015Z" fill="#FF693A"/>
<path d="M85.9975 68.1974C83.607 69.5743 81.2164 70.9512 78.8258 72.3224L78.8545 72.3282C78.3901 71.5307 77.92 70.7332 77.4557 69.93L79.8405 68.5589L78.4704 66.1722L80.8724 64.7896L82.2426 67.1762L84.6274 65.805C85.0803 66.6082 85.5389 67.4114 85.9918 68.2204V68.1917L85.9975 68.1974Z" fill="#FF693A"/>
<path d="M55.0807 3.39071L57.4598 2.02527L58.8357 4.41766L61.209 3.05222L62.5677 5.42166L60.2173 6.77562L61.6103 9.19669L59.2083 10.5793C57.8152 8.15827 56.4508 5.77736 55.0807 3.40218V3.39071Z" fill="#FF693A"/>
<path d="M46.5558 5.12325L48.9578 3.7406L50.3108 6.09283L47.9087 7.47548L46.5558 5.12325Z" fill="#FF693A"/>
<path d="M51.3257 2.37508L53.7277 0.992432L55.1093 3.39629C54.3354 3.83805 53.5672 4.28555 52.7073 4.77894L51.3257 2.37508Z" fill="#FF693A"/>
<path d="M38.3867 13.0061L39.7568 15.387L37.372 16.7582H37.4007C36.9592 15.9952 36.5121 15.2206 36.0305 14.383L38.4154 13.0118H38.3867V13.0061Z" fill="#FF693A"/>
<path d="M37.3718 16.7582L38.7248 19.1104L36.3858 20.4586L35.0443 18.1236C35.8297 17.6704 36.6151 17.2172 37.4005 16.7697L37.3718 16.7639V16.7582Z" fill="#FF693A"/>
<path d="M33.015 25.6679L35.3311 24.3369L36.6668 26.6662L34.3508 27.9972L33.015 25.6679Z" fill="#FF693A"/>
<path d="M61.5814 9.1794L63.9319 7.82544L65.3135 10.2293L62.963 11.5833L61.5814 9.1794Z" fill="#FF693A"/>
<path d="M62.9745 11.5603L64.3561 13.9642L62.0056 15.3181L60.624 12.9143L62.9745 11.5603Z" fill="#FF693A"/>
<path d="M64.3274 13.9585L66.6778 12.6045L68.0594 15.0084L65.709 16.3623L64.3274 13.9585Z" fill="#FF693A"/>
<path d="M65.7147 16.3336L67.0963 18.7375L64.6942 20.1201L63.3126 17.7163L65.7147 16.3336Z" fill="#FF693A"/>
<path d="M64.7001 20.0916L66.0817 22.4954L63.6797 23.8781L62.2981 21.4742L64.7001 20.0916Z" fill="#FF693A"/>
<path d="M63.6911 23.8551L65.0727 26.259L62.6707 27.6416L61.2891 25.2378L63.6911 23.8551Z" fill="#FF693A"/>
<path d="M62.6765 27.6128L64.0581 30.0167L61.7076 31.3706L60.326 28.9668L62.6765 27.6128Z" fill="#FF693A"/>
<path d="M64.0293 30.0109L66.3797 28.657L67.7613 31.0608L65.4109 32.4148L64.0293 30.0109Z" fill="#FF693A"/>
<path d="M65.4167 32.3861L66.7983 34.79L64.3962 36.1726L63.0146 33.7688L65.4167 32.3861Z" fill="#FF693A"/>
<path d="M64.4078 36.1498L65.7894 38.5536L63.439 39.9076L62.0574 37.5037L64.4078 36.1498Z" fill="#FF693A"/>
<path d="M65.7606 38.5421L68.1455 37.1709L69.5271 39.5748V39.5461C68.7359 40.005 67.9333 40.4698 67.1308 40.9287H67.1594C66.6951 40.137 66.225 39.3395 65.7606 38.5421Z" fill="#FF693A"/>
<path d="M66.1448 44.6981L64.7747 42.3115L67.1595 40.9403H67.1308C67.5952 41.732 68.0653 42.5295 68.5296 43.327C67.727 43.7802 66.9187 44.2392 66.1161 44.6924H66.1448V44.6981Z" fill="#FF693A"/>
<path d="M60.3604 51.2039L59.0074 48.8516L61.3751 47.4919L62.728 49.8442V49.8155C61.9369 50.2745 61.1343 50.7392 60.3317 51.1981H60.3604V51.2039Z" fill="#FF693A"/>
<path d="M65.13 48.4558L63.7599 46.0692L66.1447 44.698H66.1161C66.5804 45.4897 67.0505 46.2872 67.5149 47.0847C66.7123 47.5379 65.9039 47.9969 65.1014 48.4501H65.13V48.4558Z" fill="#FF693A"/>
<path d="M54.5761 57.71L53.2231 55.3578L55.5908 53.998L56.9437 56.3503V56.3216C56.1526 56.7806 55.35 57.2453 54.5474 57.7042H54.5761V57.71Z" fill="#FF693A"/>
<path d="M59.3457 54.9618L57.9756 52.5752C58.7896 52.1047 59.575 51.6572 60.3604 51.204H60.3318C60.7961 51.9957 61.2662 52.7932 61.7306 53.5906C60.928 54.0439 60.1196 54.5028 59.3171 54.9561H59.3457V54.9618Z" fill="#FF693A"/>
<path d="M62.728 49.8443L65.1301 48.4617H65.1014C65.5658 49.2534 66.0358 50.0509 66.5002 50.8483L64.0982 52.231C63.6453 51.4278 63.1867 50.6246 62.7338 49.8156V49.8443H62.728Z" fill="#FF693A"/>
<path d="M53.5613 61.4677L52.1912 59.081C53.0052 58.6106 53.7906 58.1631 54.576 57.7098H54.5473C55.0002 58.4901 55.4531 59.2761 55.9175 60.0908L53.5326 61.4619H53.5613V61.4677Z" fill="#FF693A"/>
<path d="M56.9438 56.3502C57.7464 55.8912 58.549 55.4265 59.3459 54.9675H59.3172C59.7816 55.7593 60.2517 56.5567 60.716 57.3542L58.3312 58.7254L56.9496 56.3215V56.3502H56.9438Z" fill="#FF693A"/>
<path d="M52.5468 65.2312L51.1766 62.8446C51.9907 62.3741 52.7761 61.9266 53.5615 61.4734H53.5328C53.9972 62.2651 54.4673 63.0626 54.9316 63.86C54.129 64.3133 53.3207 64.7722 52.5181 65.2255H52.5468V65.2312Z" fill="#FF693A"/>
<path d="M51.5377 68.9892L50.1676 66.6025C50.9817 66.1321 51.767 65.6846 52.5524 65.2313H52.5238C52.9881 66.023 53.4582 66.8205 53.9226 67.618C53.12 68.0712 52.3117 68.5302 51.5091 68.9834H51.5377V68.9892Z" fill="#FF693A"/>
<path d="M52.8964 71.3586L50.5459 72.7125L49.1815 70.3431C49.9669 69.8899 50.7523 69.4424 51.532 68.9891H51.5033C51.9619 69.7866 52.4263 70.5841 52.8849 71.3873V71.3586H52.8964Z" fill="#FF693A"/>
<path d="M54.2778 73.7623C53.8192 72.9591 53.3549 72.1617 52.8962 71.3585L52.8905 71.3872C53.6874 70.9225 54.4842 70.452 55.2811 69.9873C55.7397 70.7905 56.204 71.588 56.6627 72.3912C55.8601 72.8444 55.0518 73.3034 54.2492 73.7566H54.2778V73.7623Z" fill="#FF693A"/>
<path d="M53.2633 77.5259L51.8932 75.1392C52.7072 74.6688 53.4926 74.2213 54.278 73.7681H54.2494C54.7137 74.5598 55.1838 75.3573 55.6482 76.1547C54.8456 76.608 54.0372 77.0669 53.2347 77.5202H53.2633V77.5259Z" fill="#FF693A"/>
<path d="M52.2543 81.2837L50.8842 78.8971C51.6982 78.4266 52.4836 77.9791 53.269 77.5259H53.2403C53.7047 78.3176 54.1748 79.1151 54.6391 79.9125C53.8365 80.3658 53.0282 80.8247 52.2256 81.278H52.2543V81.2837Z" fill="#FF693A"/>
<path d="M51.2395 85.0474L49.8694 82.6607C50.6834 82.1903 51.4688 81.7428 52.2542 81.2896H52.2256C52.6899 82.0813 53.16 82.8787 53.6244 83.6762C52.8218 84.1294 52.0134 84.5884 51.2109 85.0416H51.2395V85.0474Z" fill="#FF693A"/>
<path d="M52.5983 87.4168L50.2478 88.7708L48.8834 86.4013C49.6688 85.9481 50.4542 85.5006 51.2339 85.0474H51.2052C51.6638 85.8448 52.1282 86.6423 52.5868 87.4455V87.4168H52.5983Z" fill="#FF693A"/>
<path d="M53.9799 89.8207C53.5212 89.0175 53.0569 88.22 52.5983 87.4168V87.4455C53.3894 86.9808 54.1862 86.5104 54.9831 86.0457C55.4417 86.8489 55.9061 87.6463 56.3647 88.4495C55.5621 88.9027 54.7538 89.3617 53.9512 89.815H53.9799V89.8207Z" fill="#FF693A"/>
<path d="M75.4374 77.4456L73.0354 78.8283H73.0641C72.5997 78.0365 72.1296 77.2391 71.6653 76.4416C72.4679 75.9826 73.2647 75.5179 74.0673 75.059C74.5202 75.8622 74.9788 76.6711 75.4317 77.4743V77.4456H75.4374Z" fill="#FF693A"/>
<path d="M78.8199 72.3224L80.19 74.709L77.8052 76.0802H77.8339C77.3695 75.2885 76.8994 74.491 76.4351 73.6936C77.2376 73.2403 78.0402 72.7814 78.8486 72.3281H78.8199V72.3224Z" fill="#FF693A"/>
<path d="M88.3651 66.8319L89.718 69.1841L87.3504 70.5496L85.9974 68.1973V68.226C86.7943 67.7671 87.5912 67.3024 88.3937 66.8434H88.3651V66.8319Z" fill="#FF693A"/>
<path d="M50.5803 94.898L48.1955 96.2692L46.8712 93.9628L49.2389 92.6031C49.6745 93.3662 50.1274 94.1464 50.5746 94.9267V94.898H50.5803Z" fill="#FF693A"/>
<path d="M52.9707 93.5785L51.6006 91.1919C52.4146 90.7214 53.2 90.2739 53.9854 89.8207H53.9568C54.4211 90.6124 54.8912 91.4099 55.3556 92.2073C54.553 92.6606 53.7446 93.1195 52.9421 93.5728H52.9707V93.5785Z" fill="#FF693A"/>
<path d="M73.0356 78.8284L74.4057 81.215L72.0209 82.5862H72.0496C71.5967 81.8059 71.1438 81.02 70.6794 80.2053L73.0643 78.8341H73.0356V78.8284Z" fill="#FF693A"/>
<path d="M77.8112 76.0859L79.1642 78.4382L76.7965 79.8036C76.3437 79.0176 75.8965 78.2374 75.4436 77.4514V77.4801C76.2405 77.0211 77.0373 76.5564 77.8399 76.0974H77.8112V76.0859Z" fill="#FF693A"/>
<path d="M98.2828 67.4802L95.898 68.8513L94.5278 66.4647V66.4934C95.319 66.0287 96.1158 65.5582 96.9127 65.0935C97.3656 65.8967 97.8242 66.6999 98.2771 67.5088L98.2828 67.4802Z" fill="#FF693A"/>
<path d="M51.9562 97.342C51.4976 96.5274 51.0389 95.7184 50.5803 94.9038V94.9325C51.3772 94.4792 52.1798 94.0317 52.9766 93.5842H52.948C53.4123 94.376 53.8824 95.1734 54.3468 95.9709C53.5442 96.4241 52.7358 96.8831 51.9333 97.3363H51.9619L51.9562 97.342Z" fill="#FF693A"/>
<path d="M72.0266 82.5918L73.3967 84.9784L71.0119 86.3496H71.0405C70.5762 85.5579 70.1061 84.7604 69.6417 83.963C70.4443 83.5097 71.2469 83.0508 72.0552 82.5975H72.0266V82.5918Z" fill="#FF693A"/>
<path d="M100.65 66.1147L102.003 68.467L99.6357 69.8324L98.2827 67.4802V67.5089C99.0796 67.0499 99.8764 66.5852 100.679 66.1262H100.65V66.1147Z" fill="#FF693A"/>
<path d="M43.7813 105.168L41.3964 106.539L40.0721 104.232L42.4398 102.873C42.8755 103.636 43.3284 104.416 43.7755 105.196V105.168H43.7813Z" fill="#FF693A"/>
<path d="M46.2061 103.854L44.8359 101.467L47.1405 100.142L48.4992 102.511C47.7367 102.947 46.9571 103.401 46.1774 103.848H46.2061V103.854Z" fill="#FF693A"/>
<path d="M53.3148 99.7115L50.9644 101.065L49.6 98.696C50.3854 98.2428 51.1708 97.7953 51.9504 97.342H51.9218C52.3804 98.1395 52.8447 98.937 53.3034 99.7402V99.7115H53.3148Z" fill="#FF693A"/>
<path d="M67.6295 91.473L65.2274 92.8556H65.2561C64.7917 92.0639 64.3217 91.2664 63.8573 90.469L66.2593 89.0863C66.7122 89.8895 67.1708 90.6984 67.6237 91.5016V91.473H67.6295Z" fill="#FF693A"/>
<path d="M71.0119 86.3496L72.382 88.7363L69.9972 90.1074H70.0259C69.5615 89.3157 69.0914 88.5182 68.6271 87.7208C69.4297 87.2676 70.2323 86.8086 71.0406 86.3553H71.0119V86.3496Z" fill="#FF693A"/>
<path d="M45.1571 107.606C44.6985 106.797 44.2399 105.982 43.7812 105.168V105.196C44.5896 104.749 45.4036 104.301 46.2119 103.854H46.1833C46.6304 104.651 47.0776 105.454 47.5305 106.252V106.223C46.7394 106.682 45.9368 107.141 45.1399 107.606L45.1686 107.612L45.1571 107.606Z" fill="#FF693A"/>
<path d="M54.6964 102.115C54.2378 101.312 53.7734 100.515 53.3148 99.7115V99.7402C54.1059 99.2755 54.9028 98.805 55.6997 98.3403C56.1525 99.1435 56.6112 99.9525 57.0641 100.756V100.727C56.2729 101.186 55.4703 101.651 54.6678 102.11L54.6964 102.115Z" fill="#FF693A"/>
<path d="M65.2276 92.8556L66.5977 95.2422L64.2129 96.6134H64.2416C63.7772 95.8217 63.3071 95.0242 62.8428 94.2268L65.2563 92.8613H65.2276V92.8556Z" fill="#FF693A"/>
<path d="M69.9972 90.1075L71.3501 92.4598L68.9825 93.8252C68.5296 93.0392 68.0824 92.259 67.6295 91.473V91.5017C68.4264 91.0427 69.2232 90.578 70.0258 90.119H69.9972V90.1075Z" fill="#FF693A"/>
<path d="M119.093 65.0304L116.708 66.4016L115.338 64.015V64.0437C116.135 63.5847 116.931 63.12 117.734 62.661H117.705C118.164 63.4527 118.628 64.2559 119.087 65.0591V65.0304H119.093Z" fill="#FF693A"/>
<path d="M41.7518 112.689L39.367 114.06L38.0427 111.754L40.4104 110.394C40.8461 111.157 41.2989 111.937 41.7461 112.718V112.689H41.7518Z" fill="#FF693A"/>
<path d="M45.1285 107.594L46.4986 109.981L44.1138 111.352H44.1425C43.701 110.589 43.2539 109.815 42.7723 108.971C43.5864 108.501 44.3718 108.053 45.1572 107.6L45.1285 107.594Z" fill="#FF693A"/>
<path d="M53.6817 105.873L52.3115 103.487C53.1256 103.016 53.911 102.569 54.6964 102.115H54.6677C55.1263 102.913 55.5907 103.71 56.0493 104.513V104.485C55.2582 104.944 54.4556 105.408 53.653 105.867H53.6817V105.873Z" fill="#FF693A"/>
<path d="M60.8305 101.737L58.4285 103.119H58.4572C57.9985 102.328 57.5342 101.524 57.0756 100.721V100.75C57.8552 100.297 58.6406 99.8434 59.4547 99.3787L60.8248 101.765V101.737H60.8305Z" fill="#FF693A"/>
<path d="M64.2127 96.6134L65.5829 99.0001L63.198 100.371H63.2267C62.7738 99.591 62.3209 98.805 61.8566 97.9903L64.2414 96.6191H64.2127V96.6134Z" fill="#FF693A"/>
<path d="M33.5883 120.618L32.2354 118.265L34.603 116.906L35.9559 119.258V119.229C35.1648 119.688 34.3622 120.147 33.5654 120.612H33.594L33.5883 120.618Z" fill="#FF693A"/>
<path d="M44.1137 111.358C44.5724 112.161 45.031 112.964 45.4896 113.762V113.733C44.6985 114.192 43.8959 114.651 43.099 115.116L43.1277 115.121C42.6691 114.313 42.2105 113.498 41.7518 112.683V112.712C42.5487 112.259 43.3513 111.811 44.1481 111.358L44.1195 111.352L44.1137 111.358Z" fill="#FF693A"/>
<path d="M52.6729 109.637C52.2085 108.845 51.7441 108.059 51.2855 107.267V107.296C52.0881 106.826 52.8907 106.349 53.6933 105.879H53.6646C54.1232 106.676 54.5876 107.474 55.0462 108.277V108.248C54.2551 108.707 53.4525 109.172 52.6499 109.631H52.6786L52.6729 109.637Z" fill="#FF693A"/>
<path d="M58.4284 103.119L59.7986 105.506L57.4137 106.877H57.4424C56.9838 106.085 56.5194 105.282 56.0608 104.479V104.508C56.8519 104.049 57.6545 103.584 58.4571 103.125H58.4284V103.119Z" fill="#FF693A"/>
<path d="M63.1982 100.377L64.5511 102.729L62.1835 104.095C61.7306 103.309 61.2835 102.528 60.8306 101.742V101.771C61.6274 101.312 62.4243 100.847 63.2269 100.388H63.1982V100.377Z" fill="#FF693A"/>
<path d="M38.4097 13.0119L37.0453 10.6424C37.8593 10.172 38.6562 9.713 39.4588 9.25403H39.4301C39.8715 10.0228 40.313 10.7916 40.7945 11.6235C39.9518 12.1054 39.1664 12.5586 38.3868 13.0119L38.4154 13.0176L38.4097 13.0119Z" fill="#FF693A"/>
<path d="M33.5597 120.606L34.9126 122.958L32.5736 124.307L31.2322 121.972C32.0176 121.518 32.803 121.065 33.5883 120.618L33.5597 120.612V120.606Z" fill="#FF693A"/>
<path d="M35.9502 119.252L38.3006 117.898L39.6478 120.239L37.3146 121.581C36.8617 120.795 36.4088 120.009 35.9617 119.223L35.9559 119.252H35.9502Z" fill="#FF693A"/>
<path d="M43.1046 115.116L44.4575 117.468L42.1186 118.816L40.7771 116.481C41.5625 116.028 42.3479 115.575 43.1333 115.127L43.1046 115.121V115.116Z" fill="#FF693A"/>
<path d="M45.4955 113.762L47.8459 112.408L49.1931 114.748L46.8599 116.091C46.407 115.305 45.9541 114.519 45.5069 113.733L45.5012 113.762H45.4955Z" fill="#FF693A"/>
<path d="M54.0315 112.006L51.6811 113.36L50.3167 110.991C51.102 110.537 51.8874 110.09 52.6671 109.637H52.6384C53.097 110.434 53.5614 111.232 54.02 112.035V112.006H54.0315Z" fill="#FF693A"/>
<path d="M57.4137 106.883L58.7838 109.27L56.399 110.641H56.4276C55.969 109.849 55.5046 109.046 55.046 108.243V108.271C55.8371 107.812 56.6397 107.348 57.4423 106.889H57.4137V106.883Z" fill="#FF693A"/>
<path d="M56.3991 110.641L57.7521 112.993L55.3844 114.358C54.9315 113.572 54.4844 112.792 54.0315 112.006V112.035C54.8284 111.576 55.6252 111.111 56.4278 110.652H56.3991V110.641Z" fill="#FF693A"/>
<path d="M26.772 130.939L28.102 133.257L25.7917 134.588L24.4617 132.27L26.772 130.939Z" fill="#FF693A"/>
<path d="M29.2028 129.516L31.5188 128.185L32.8545 130.514L30.5385 131.845L29.2028 129.516Z" fill="#FF693A"/>
<path d="M33.9781 126.768L36.2885 125.437L37.6242 127.76L35.3139 129.091L33.9781 126.768Z" fill="#FF693A"/>
<path d="M42.4685 124.984L40.0837 126.355L38.7594 124.048L41.127 122.689C41.5627 123.452 42.0156 124.232 42.4628 125.012V124.984H42.4685Z" fill="#FF693A"/>
<path d="M44.8932 123.664L43.5231 121.277L45.8277 119.952L47.1863 122.321C46.4239 122.757 45.6442 123.211 44.8645 123.658H44.8932V123.664Z" fill="#FF693A"/>
<path d="M48.3044 118.506L50.5918 117.187L51.9333 119.522L49.6459 120.841L48.3044 118.506Z" fill="#FF693A"/>
<path d="M43.8444 127.416C43.3858 126.607 42.9271 125.793 42.4685 124.978V125.007C43.2768 124.559 44.0909 124.112 44.8992 123.664H44.8705C45.312 124.433 45.7534 125.202 46.2292 126.028L43.8214 127.41H43.8501L43.8444 127.416Z" fill="#FF693A"/>
<path d="M18.9526 144.863L17.6283 142.556L19.9615 141.214L21.2858 143.52L18.9526 144.863Z" fill="#FF693A"/>
<path d="M26.0784 140.795L23.7796 142.12L22.4381 139.785L24.737 138.46L26.0784 140.795Z" fill="#FF693A"/>
<path d="M27.1906 137.037L29.5066 135.701L30.8366 138.013L28.5206 139.349L27.1906 137.037Z" fill="#FF693A"/>
<path d="M31.9603 134.283L34.2706 132.952L35.6006 135.264L33.2903 136.595L31.9603 134.283Z" fill="#FF693A"/>
<path d="M40.3759 132.545L38.0599 133.882L36.7299 131.57L39.0459 130.233L40.3759 132.545Z" fill="#FF693A"/>
<path d="M47.5189 106.24L49.8866 104.875C50.3566 105.69 50.8153 106.487 51.2739 107.29V107.262C50.5057 107.703 49.7375 108.145 48.9062 108.627C48.4247 107.784 47.9718 106.998 47.5189 106.217L47.5132 106.246L47.5189 106.24Z" fill="#FF693A"/>
<path d="M13.1741 151.461L14.5041 153.773L12.1823 155.109L10.8523 152.797L13.1741 151.461Z" fill="#FF693A"/>
<path d="M21.7159 149.63L20.3916 147.324L22.7076 145.993L24.0319 148.299L21.7159 149.63Z" fill="#FF693A"/>
<path d="M25.1669 144.547L27.4772 143.216L28.8072 145.528L26.4969 146.859L25.1669 144.547Z" fill="#FF693A"/>
<path d="M32.2698 140.485L33.594 142.792L31.2608 144.134L29.9365 141.828L32.2698 140.485Z" fill="#FF693A"/>
<path d="M37.0394 137.743L38.3637 140.049L36.0304 141.392L34.7062 139.086L37.0394 137.743Z" fill="#FF693A"/>
<path d="M41.8032 134.995L43.1332 137.307L40.8229 138.638L39.4929 136.326L41.8032 134.995Z" fill="#FF693A"/>
<path d="M11.1445 158.982L12.4745 161.294L10.1528 162.631L8.82275 160.319L11.1445 158.982Z" fill="#FF693A"/>
<path d="M14.9166 159.894L13.5865 157.582L15.9083 156.245L17.2383 158.557L14.9166 159.894Z" fill="#FF693A"/>
<path d="M22.0197 155.821L19.7094 157.152L18.3737 154.828L20.684 153.497L22.0197 155.821Z" fill="#FF693A"/>
<path d="M24.4618 154.404L23.1376 152.092L25.4536 150.755L26.7779 153.067L24.4618 154.404Z" fill="#FF693A"/>
<path d="M31.5532 150.33L29.2371 151.667L27.9071 149.355L30.2231 148.018L31.5532 150.33Z" fill="#FF693A"/>
<path d="M33.9838 148.902L32.6595 146.601L34.9928 145.259L36.3171 147.559L33.9838 148.902Z" fill="#FF693A"/>
<path d="M13.8848 163.755L15.209 166.067L12.893 167.404L11.5687 165.092L13.8848 163.755Z" fill="#FF693A"/>
<path d="M21.1082 159.596L23.4242 158.259L24.7542 160.571L22.4382 161.908L21.1082 159.596Z" fill="#FF693A"/>
<path d="M0 178.087L2.30458 176.761L3.64605 179.096L1.34147 180.422L0 178.087Z" fill="#FF693A"/>
<path d="M9.53931 172.602L11.8496 171.271L13.1796 173.583L10.8693 174.914L9.53931 172.602Z" fill="#FF693A"/>
<path d="M20.3858 169.452L19.0615 167.146L21.3948 165.803L22.719 168.11L20.3858 169.452Z" fill="#FF693A"/>
<path d="M27.4943 165.379L25.1897 166.704L23.8483 164.369L26.1528 163.044L27.4943 165.379Z" fill="#FF693A"/>
<path d="M41.7861 7.8713L44.1882 6.48865L45.5411 8.84088L43.1391 10.2235L41.7861 7.8713Z" fill="#FF693A"/>
<path d="M5.07348 181.552L6.39775 183.858L4.06451 185.201L2.74023 182.894L5.07348 181.552Z" fill="#FF693A"/>
<path d="M12.2739 177.381L14.5842 176.05L15.92 178.373L13.6097 179.704L12.2739 177.381Z" fill="#FF693A"/>
<path d="M21.8247 171.885L24.1407 170.554L25.4708 172.866L23.1547 174.197L21.8247 171.885Z" fill="#FF693A"/>
<path d="M0.716675 190.387L3.02698 189.056L4.35699 191.368L2.04668 192.699L0.716675 190.387Z" fill="#FF693A"/>
<path d="M11.563 187.237L10.2388 184.931L12.572 183.589L13.8963 185.895L11.563 187.237Z" fill="#FF693A"/>
<path d="M43.8213 127.41L45.1742 129.763L42.8352 131.111L41.4938 128.776C42.2792 128.323 43.0646 127.869 43.8499 127.422L43.8213 127.416V127.41Z" fill="#FF693A"/>
<path d="M85.5731 39.873L87.9465 38.5076L86.5878 36.1439L88.9727 34.7727L90.3084 37.102L92.699 35.7251L94.092 38.1461V38.1175C93.3181 38.5707 92.5327 39.0182 91.7473 39.4714L93.1289 41.8753L95.4794 40.5213H95.4507C95.9093 41.313 96.3737 42.1162 96.8323 42.9194V42.8908C96.0526 43.344 95.2672 43.7972 94.436 44.2734L95.8176 46.6773V46.6486C95.0265 47.1133 94.2296 47.5837 93.4328 48.0484L92.0626 45.6618L89.6778 47.033C89.2192 46.2298 88.7548 45.4323 88.2962 44.6291L90.6466 43.2751L89.2822 40.9057L86.9318 42.2597C86.4789 41.4565 86.0203 40.6533 85.5674 39.8443V39.873H85.5731Z" fill="#FF693A"/>
<path d="M77.0428 41.6058C77.8454 41.1468 78.6422 40.6821 79.4448 40.2231H79.4161C79.869 41.0034 80.3219 41.7894 80.7977 42.6213L83.1998 41.2386H83.1711C83.6355 42.0303 84.1055 42.8278 84.5699 43.6253L82.1851 44.9964L83.5552 47.3831L81.1532 48.7657L79.783 46.3791L77.3982 47.7503C76.9396 46.9471 76.4752 46.1496 76.0166 45.3464L78.4186 43.9638L77.0485 41.5771V41.6058H77.0428Z" fill="#FF693A"/>
<path d="M79.4447 40.223L78.0918 37.865C79.674 36.9528 81.2276 36.0636 82.8443 35.1284L85.5673 39.873V39.8443C84.7705 40.3033 83.9736 40.768 83.171 41.227H83.1997C82.7468 40.4467 82.2939 39.6608 81.8181 38.8289L79.4161 40.2115H79.4447V40.223Z" fill="#FF693A"/>
<path d="M69.5271 39.5748L71.9119 38.2036L73.2821 40.5903V40.5616C72.4909 41.0263 71.6941 41.4967 70.8972 41.9614C70.4443 41.1582 69.9857 40.355 69.5328 39.5461V39.5748H69.5271Z" fill="#FF693A"/>
<path d="M73.2821 40.5902L75.6669 39.219L77.0371 41.6056V41.577C76.246 42.0417 75.4491 42.5121 74.6522 42.9768C74.1993 42.1736 73.7407 41.3647 73.2878 40.5615V40.5902H73.2821Z" fill="#FF693A"/>
<path d="M94.0977 38.1405L96.4825 36.7693L97.8526 39.1559V39.1273C97.0615 39.5862 96.2589 40.0509 95.4563 40.5099H95.485C95.0264 39.7182 94.562 38.915 94.1034 38.1118V38.1405H94.0977Z" fill="#FF693A"/>
<path d="M97.8527 39.156L100.203 37.802L101.567 40.1714L99.2171 41.5254H99.2457C98.7871 40.7279 98.3228 39.9305 97.8641 39.1273V39.156H97.8527Z" fill="#FF693A"/>
<path d="M104.354 44.9448L106.739 43.5736L108.109 45.9603V45.9316C107.312 46.3905 106.515 46.8553 105.712 47.3142H105.741C105.282 46.5225 104.818 45.7193 104.359 44.9161V44.9448H104.354Z" fill="#FF693A"/>
<path d="M89.6892 47.0101L91.0593 49.3968L93.4442 48.0256C93.8971 48.8288 94.3557 49.632 94.8086 50.4409L94.8143 50.4123L92.4639 51.7662L93.8455 54.1701L96.1959 52.8161H96.1672C96.6316 53.6078 97.1017 54.4053 97.566 55.2028L95.1812 56.5739L96.5513 58.9606L94.1493 60.3432L92.7792 57.9566L90.3943 59.3278C89.9414 58.5246 89.4828 57.7214 89.0299 56.9124V56.9411C89.8039 56.4879 90.5893 56.0404 91.3746 55.5872L89.993 53.1833L87.6426 54.5373H87.6713C87.2126 53.7455 86.7483 52.9423 86.2897 52.1391V52.1678C87.0693 51.7146 87.8547 51.2614 88.686 50.7852L87.3044 48.3813V48.41C88.0955 47.9453 88.8923 47.4748 89.6892 47.0101Z" fill="#FF693A"/>
<path d="M98.5865 51.4391C97.7839 51.8924 96.9756 52.3513 96.173 52.8046H96.2017C95.743 52.0071 95.2787 51.2097 94.8201 50.4065L94.8143 50.4351L97.2106 49.0353L98.5922 51.4391H98.5865Z" fill="#FF693A"/>
<path d="M96.9013 65.1166L95.5197 62.7127L97.9217 61.3301L99.3033 63.7339L96.9013 65.1166Z" fill="#FF693A"/>
<path d="M89.0357 56.9181C88.2331 57.3771 87.4363 57.8418 86.6337 58.3008L86.6623 58.3065C86.198 57.5091 85.7279 56.7116 85.2635 55.9084C86.0661 55.4552 86.8687 54.9962 87.6771 54.543H87.6484C88.107 55.3347 88.5714 56.1379 89.03 56.9411V56.9124L89.0357 56.9181Z" fill="#FF693A"/>
<path d="M88.0325 60.6932C87.2299 61.1464 86.4274 61.6054 85.619 62.0586L85.6477 62.0643C85.1833 61.2669 84.7133 60.4694 84.2489 59.6662C85.0515 59.213 85.8541 58.754 86.6624 58.3008L86.6337 58.295C87.0981 59.0925 87.5682 59.89 88.0325 60.6932Z" fill="#FF693A"/>
<path d="M84.6157 65.8336C84.1629 65.0304 83.7042 64.2272 83.2513 63.4183V63.447C84.0425 62.988 84.8451 62.5233 85.6476 62.0643H85.619C86.0833 62.8561 86.5534 63.6535 87.0178 64.451L84.6157 65.8336Z" fill="#FF693A"/>
<path d="M79.4965 62.4086L77.0945 63.7913L77.1232 63.797C76.6588 62.9995 76.1887 62.2021 75.7244 61.3989L78.1264 60.0162C78.5793 60.8194 79.0379 61.6284 79.4908 62.4316V62.4029L79.4965 62.4086Z" fill="#FF693A"/>
<path d="M78.4932 66.1836C77.6906 66.6369 76.888 67.0959 76.0797 67.5491L76.1084 67.5548C75.644 66.7574 75.1739 65.9599 74.7096 65.1567C75.5122 64.7035 76.3148 64.2445 77.1231 63.7913L77.0944 63.7855C77.5588 64.583 78.0289 65.3804 78.4932 66.1836Z" fill="#FF693A"/>
<path d="M83.2513 63.4241C82.4544 63.8888 81.6576 64.3593 80.855 64.824C80.4021 64.0208 79.9435 63.2119 79.4906 62.4087V62.4373C80.2817 61.9726 81.0786 61.5022 81.8754 61.0375C82.3283 61.8407 82.7869 62.6439 83.2398 63.4528L83.2456 63.4241H83.2513Z" fill="#FF693A"/>
<path d="M77.4787 69.9472C76.6761 70.4004 75.8735 70.8594 75.0652 71.3126L75.0939 71.3184C74.6295 70.5209 74.1594 69.7234 73.6951 68.9202C74.4977 68.467 75.3002 68.008 76.1086 67.5548H76.0799C76.5443 68.3465 77.0143 69.144 77.4787 69.9415V69.9472Z" fill="#FF693A"/>
<path d="M76.4638 73.705L74.0618 75.0877C73.6089 74.2845 73.1503 73.4813 72.6974 72.6723V72.701C73.4885 72.242 74.2911 71.7773 75.0937 71.3184H75.065C75.5294 72.1101 75.9995 72.9075 76.4638 73.705Z" fill="#FF693A"/>
<path d="M70.9089 41.9385C71.3618 42.7417 71.8204 43.5449 72.2733 44.3538V44.3251C71.4821 44.7841 70.6796 45.2488 69.877 45.7078H69.9056C69.4413 44.9161 68.9712 44.1186 68.5068 43.3211L70.9089 41.9385Z" fill="#FF693A"/>
<path d="M73.6318 46.7232L75.0134 49.1271L75.0191 49.0984L72.6343 50.4696L74.0159 52.8735L71.6139 54.2561L70.2323 51.8522L67.8474 53.2234H67.8761C67.4117 52.4317 66.9416 51.6342 66.4773 50.8368L68.8621 49.4656L67.492 47.0789C68.2946 46.6257 69.1029 46.1667 69.9055 45.7135H69.8768C70.3297 46.4938 70.7826 47.2797 71.2584 48.1116L73.6605 46.729H73.6318V46.7232Z" fill="#FF693A"/>
<path d="M64.1096 52.2023C64.5624 53.0055 65.0211 53.8087 65.474 54.6176V54.5889C64.6828 55.0479 63.8802 55.5126 63.0777 55.9716H63.1063C62.642 55.1798 62.1719 54.3824 61.7075 53.5849L64.1096 52.2023Z" fill="#FF693A"/>
<path d="M60.6931 57.3427C61.4957 56.8895 62.304 56.4305 63.1066 55.9773H63.0779C63.5423 56.769 64.0124 57.5665 64.4767 58.3639C63.6742 58.8172 62.8658 59.2762 62.0632 59.7294H62.0919C61.6276 58.9377 61.1575 58.1402 60.6931 57.3427Z" fill="#FF693A"/>
<path d="M56.3074 66.2467C55.843 65.4493 55.3729 64.6518 54.9086 63.8543L57.2934 62.4832L58.675 64.887V64.8583C57.8839 65.3173 57.0813 65.782 56.2787 66.241L56.3074 66.2467Z" fill="#FF693A"/>
<path d="M61.077 63.4987L59.7069 61.112C60.521 60.6416 61.3064 60.1941 62.0917 59.7408H62.0631C62.5274 60.5326 62.9975 61.33 63.4619 62.1275C62.6593 62.5807 61.851 63.0397 61.0484 63.4929H61.077V63.4987Z" fill="#FF693A"/>
<path d="M58.675 64.8812C59.4776 64.4222 60.2802 63.9575 61.0771 63.4985H61.0484C61.5128 64.2903 61.9829 65.0877 62.4472 65.8852C61.6446 66.3384 60.8363 66.7974 60.0337 67.2506H60.0624C59.6038 66.4589 59.1394 65.6557 58.6808 64.8525V64.8812H58.675Z" fill="#FF693A"/>
<path d="M65.4741 54.6175L67.8762 53.2349H67.8475C68.3118 54.0266 68.7819 54.824 69.2463 55.6215L66.8443 57.0042C66.3914 56.201 65.9327 55.3978 65.4799 54.5888V54.6175H65.4741Z" fill="#FF693A"/>
<path d="M57.666 68.6161C56.8691 69.0809 56.0723 69.5513 55.2754 70.016L53.8938 67.6121C54.6964 67.1589 55.5047 66.6999 56.3073 66.2467L56.2786 66.241L57.6602 68.6448L57.666 68.6161Z" fill="#FF693A"/>
<path d="M59.0477 71.02C58.5891 70.2168 58.1248 69.4194 57.6661 68.6162L57.6604 68.6449L60.0624 67.2622H60.0338C60.4981 68.0539 60.9682 68.8514 61.4326 69.6489C60.63 70.1021 59.8217 70.5611 59.0191 71.0143H59.0477V71.02Z" fill="#FF693A"/>
<path d="M58.0386 74.7778C57.5742 73.9804 57.1041 73.1829 56.6398 72.3855C57.4424 71.9322 58.2507 71.4733 59.0533 71.02L59.0246 71.0143C59.489 71.8117 59.959 72.6092 60.4234 73.4067C59.6208 73.8599 58.8125 74.3189 58.0099 74.7721H58.0386V74.7778Z" fill="#FF693A"/>
<path d="M57.024 78.5414C56.5597 77.7439 56.0896 76.9465 55.6252 76.149C56.4278 75.6958 57.2362 75.2368 58.0387 74.7836H58.0101C58.4744 75.5753 58.9445 76.3728 59.4089 77.1702C58.6063 77.6235 57.798 78.0824 56.9954 78.5357L57.024 78.5414Z" fill="#FF693A"/>
<path d="M58.3826 80.9109C57.5858 81.3756 56.7889 81.8461 55.9921 82.3108L54.6105 79.9069C55.4131 79.4537 56.2214 78.9947 57.024 78.5415H56.9953C57.4539 79.339 57.9183 80.1364 58.3769 80.9396V80.9109H58.3826Z" fill="#FF693A"/>
<path d="M55.9977 82.2821L57.3793 84.686L54.9773 86.0686L53.5957 83.6648L55.9977 82.2821Z" fill="#FF693A"/>
<path d="M62.1434 81.9263L59.7586 83.2975C59.2885 82.4828 58.8413 81.6968 58.3884 80.9108V80.9395C59.1796 80.4748 59.9764 80.0044 60.7733 79.5397C61.2262 80.3429 61.6848 81.1518 62.1377 81.955V81.9263H62.1434Z" fill="#FF693A"/>
<path d="M64.5107 80.5609L65.8923 82.9648V82.9361C65.1012 83.3951 64.2986 83.8598 63.496 84.3187H63.5247C63.066 83.5213 62.6017 82.7238 62.1431 81.9206V81.9493C62.9399 81.4903 63.7368 81.0256 64.5394 80.5667H64.5107V80.5609Z" fill="#FF693A"/>
<path d="M57.7406 90.8362C57.2762 90.0387 56.8062 89.2413 56.3418 88.4438L58.7266 87.0726L60.1082 89.4765V89.4478C59.3171 89.9068 58.5145 90.3715 57.7119 90.8305L57.7406 90.8362Z" fill="#FF693A"/>
<path d="M64.8837 86.6996C64.0869 87.1643 63.29 87.6348 62.4932 88.0995L61.123 85.7129C61.9543 85.2367 62.7397 84.7834 63.5251 84.3302H63.4964C63.955 85.1277 64.4194 85.9251 64.878 86.7283L64.8837 86.6996Z" fill="#FF693A"/>
<path d="M63.8804 90.4747C63.0779 90.9279 62.2753 91.3869 61.4669 91.8401H61.4956C61.037 91.0484 60.5726 90.2452 60.114 89.442L60.1083 89.4707C60.9051 89.006 61.702 88.5355 62.5046 88.0708L63.8862 90.4747H63.8804Z" fill="#FF693A"/>
<path d="M59.0992 93.2056C58.3023 93.6703 57.5055 94.1408 56.7086 94.6055L55.327 92.2016C56.1296 91.7484 56.9379 91.2894 57.7405 90.8362H57.7119C58.1705 91.6336 58.6348 92.4311 59.0935 93.2343V93.2056H59.0992Z" fill="#FF693A"/>
<path d="M67.9274 75.4205L65.5254 76.8031H65.5541C65.0897 76.0114 64.6196 75.2139 64.1553 74.4165L66.5573 73.0338C67.0102 73.837 67.4688 74.646 67.9217 75.4492V75.4205H67.9274Z" fill="#FF693A"/>
<path d="M65.5256 76.8031L66.8957 79.1897C66.0817 79.6602 65.2963 80.1134 64.5109 80.5609H64.5395C64.0752 79.7692 63.6051 78.9717 63.1407 78.1743C63.9433 77.721 64.7517 77.2621 65.5542 76.8088H65.5256V76.8031Z" fill="#FF693A"/>
<path d="M70.2953 74.0551C70.7596 74.8525 71.2297 75.65 71.694 76.4474L69.3092 77.8186C68.8334 76.9867 68.3805 76.2008 67.9276 75.4148V75.4434C68.7245 74.9845 69.5213 74.5198 70.3239 74.0608H70.2953V74.0551Z" fill="#FF693A"/>
<path d="M69.6648 83.9688C68.8622 84.422 68.0596 84.881 67.2513 85.3342H67.2799C66.8213 84.5425 66.3569 83.7393 65.8983 82.9361V82.9648C66.6608 82.523 67.4347 82.0755 68.2946 81.5822L69.6648 83.9688Z" fill="#FF693A"/>
<path d="M72.6972 72.6724C71.8946 73.1314 71.092 73.5961 70.2952 74.0551H70.3238C69.8595 73.2633 69.3894 72.4659 68.925 71.6684C69.7276 71.2094 70.5302 70.7447 71.3271 70.2858C71.78 71.089 72.2386 71.8922 72.6915 72.7011V72.6724H72.6972Z" fill="#FF693A"/>
<path d="M56.7143 94.5768L58.0959 96.9806L55.6939 98.3633L54.3123 95.9594L56.7143 94.5768Z" fill="#FF693A"/>
<path d="M68.65 87.7323L66.2479 89.115C65.7951 88.3118 65.3364 87.5029 64.8835 86.6997L64.8778 86.7283L67.2798 85.3457H67.2512C67.7155 86.1374 68.1856 86.9349 68.65 87.7323Z" fill="#FF693A"/>
<path d="M62.8657 94.2382L60.4808 95.6094C60.005 94.7775 59.5521 93.9915 59.0992 93.2055V93.2342C59.8961 92.7752 60.693 92.3105 61.4955 91.8516H61.4669C61.9312 92.6433 62.4013 93.4408 62.8657 94.2382Z" fill="#FF693A"/>
<path d="M85.9285 46.0233L84.5469 43.6195L86.9489 42.2368L88.3305 44.6407L85.9285 46.0233Z" fill="#FF693A"/>
<path d="M84.9311 49.7697C84.4668 48.9722 83.9967 48.1747 83.5323 47.3773L85.9344 45.9946C86.3873 46.7978 86.8459 47.6068 87.2988 48.41V48.3813C86.5019 48.8402 85.7051 49.305 84.9025 49.7639H84.9311V49.7697Z" fill="#FF693A"/>
<path d="M72.2673 44.3481L74.6636 42.9482L76.0452 45.3521C75.2426 45.8053 74.4343 46.2643 73.6317 46.7175H73.6604C73.2018 45.9201 72.7374 45.1226 72.2788 44.3194V44.3481H72.2673Z" fill="#FF693A"/>
<path d="M77.4041 47.7273C77.857 48.5305 78.3156 49.3337 78.7685 50.1426L78.7743 50.1139C77.9774 50.5787 77.1805 51.0491 76.3779 51.5138C75.9251 50.7106 75.4664 49.9074 75.0136 49.0985L75.0078 49.1272C75.8047 48.6625 76.6015 48.192 77.4041 47.7273Z" fill="#FF693A"/>
<path d="M81.1646 48.7428C81.6175 49.546 82.0761 50.3492 82.529 51.1581V51.1294C81.7379 51.5942 80.941 52.0646 80.1442 52.5293C79.6913 51.7261 79.2327 50.9229 78.7798 50.114L78.774 50.1427C79.5709 49.678 80.3678 49.2075 81.1703 48.7428H81.1646Z" fill="#FF693A"/>
<path d="M82.5291 51.1524C83.3316 50.6935 84.1342 50.2287 84.9311 49.7698H84.9024C85.361 50.5672 85.8254 51.3647 86.284 52.1679V52.1392C85.4929 52.6039 84.696 53.0744 83.8992 53.5391C83.4463 52.7359 82.9877 51.9269 82.5348 51.1237V51.1524H82.5291Z" fill="#FF693A"/>
<path d="M80.1501 52.5006L81.5203 54.8873L83.9051 53.5161L85.2867 55.92L82.9019 57.2911L84.272 59.6778L81.87 61.0604L80.4998 58.6738L78.115 60.045C77.6621 59.2418 77.2035 58.4386 76.7506 57.6296L76.7449 57.6583L79.1469 56.2757L77.7653 53.8718V53.9005C78.5564 53.4358 79.3533 52.9653 80.1501 52.5006Z" fill="#FF693A"/>
<path d="M72.9899 56.6485L75.3919 55.2659L75.3632 55.2601L76.7448 57.664L76.7506 57.6353C75.948 58.0943 75.1511 58.559 74.3485 59.018L74.3772 59.0237L72.9956 56.6198V56.6485H72.9899Z" fill="#FF693A"/>
<path d="M75.7473 61.4103C74.9447 61.8636 74.1421 62.3225 73.3338 62.7758L73.3624 62.7815L71.9808 60.3776V60.4063C72.772 59.9474 73.5746 59.4827 74.3771 59.0237L74.3485 59.0179C74.8128 59.8154 75.2829 60.6129 75.7473 61.4161V61.4103Z" fill="#FF693A"/>
<path d="M74.7325 65.1681C73.9299 65.6214 73.1273 66.0804 72.319 66.5336L72.3476 66.5393C71.8833 65.7419 71.4132 64.9444 70.9489 64.1412C71.7514 63.688 72.554 63.229 73.3624 62.7758L73.3337 62.77C73.798 63.5675 74.2681 64.3649 74.7325 65.1681Z" fill="#FF693A"/>
<path d="M71.3158 70.3145C70.8629 69.5113 70.4043 68.7081 69.9514 67.8991V67.9278C70.7425 67.4688 71.5451 67.0041 72.3477 66.5452L72.3191 66.5394C72.7834 67.3369 73.2535 68.1344 73.7179 68.9376L71.3158 70.3202V70.3145Z" fill="#FF693A"/>
<path d="M70.6163 58.0082C70.152 57.2107 69.6819 56.4133 69.2175 55.6158L71.6196 54.2332C72.0725 55.0364 72.5311 55.8453 72.984 56.6485V56.6198C72.1871 57.0788 71.3903 57.5435 70.5877 58.0025H70.6163V58.0082Z" fill="#FF693A"/>
<path d="M76.3951 51.4851C76.848 52.2883 77.3066 53.0972 77.7595 53.9004V53.8718C76.9626 54.3307 76.1658 54.7954 75.3632 55.2544L75.3918 55.2601C74.9275 54.4627 74.4574 53.6652 73.993 52.862L76.3951 51.4794V51.4851Z" fill="#FF693A"/>
<path d="M66.85 56.9756C67.3029 57.7788 67.7615 58.582 68.2144 59.3909V59.3622C67.4233 59.8212 66.6207 60.2859 65.8181 60.7449H65.8468C65.3824 59.9532 64.9124 59.1557 64.448 58.3582L66.85 56.9756Z" fill="#FF693A"/>
<path d="M64.832 64.5142C64.3677 63.7167 63.8976 62.9192 63.4332 62.1218C64.2358 61.6686 65.0441 61.2096 65.8467 60.7563H65.8181C66.2824 61.5481 66.7525 62.3455 67.2169 63.143C66.4143 63.5962 65.6059 64.0552 64.8034 64.5084H64.832V64.5142Z" fill="#FF693A"/>
<path d="M63.8229 68.272C63.3585 67.4745 62.8884 66.6771 62.4241 65.8796C63.2267 65.4264 64.035 64.9674 64.8376 64.5142H64.8089C65.2675 65.3116 65.7319 66.1091 66.1905 66.9123V66.8836C65.3994 67.3426 64.5968 67.8073 63.7942 68.2663L63.8229 68.272Z" fill="#FF693A"/>
<path d="M65.1818 70.6414C64.385 71.1061 63.5881 71.5766 62.7913 72.0413L61.4097 69.6374C62.2123 69.1842 63.0206 68.7252 63.8232 68.272H63.7945C64.2531 69.0694 64.7175 69.8669 65.1761 70.6701V70.6414H65.1818Z" fill="#FF693A"/>
<path d="M68.2144 59.3908L70.6164 58.0082H70.5877C71.0463 58.8056 71.5107 59.6031 71.9693 60.4063V60.3776C71.1782 60.8423 70.3813 61.3128 69.5845 61.7775C69.1316 60.9743 68.673 60.1653 68.2201 59.3621V59.3908H68.2144Z" fill="#FF693A"/>
<path d="M64.1784 74.4222L61.7764 75.8048L60.3948 73.401L62.7968 72.0183L64.1784 74.4222Z" fill="#FF693A"/>
<path d="M61.7823 75.7761L63.1639 78.18L60.7618 79.5626L59.3802 77.1588L61.7823 75.7761Z" fill="#FF693A"/>
<path d="M67.5494 69.2817C68.0137 70.0792 68.4838 70.8767 68.9482 71.6741L66.5462 73.0568C66.0933 72.2536 65.6346 71.4446 65.1818 70.6414L65.176 70.6701L67.5781 69.2875H67.5494V69.2817Z" fill="#FF693A"/>
<path d="M69.9514 67.8991C69.1488 68.3581 68.3462 68.8228 67.5493 69.2818H67.578C67.1194 68.4843 66.655 67.6868 66.1964 66.8836V66.9123C66.9875 66.4476 67.7844 65.9772 68.5812 65.5125C69.0341 66.3157 69.4928 67.1189 69.9456 67.9278V67.8991H69.9514Z" fill="#FF693A"/>
<path d="M68.5754 65.5353L67.1938 63.1314L69.5959 61.7488L70.9775 64.1526L68.5754 65.5353Z" fill="#FF693A"/>
</svg>
