<svg width="25" height="24" viewBox="0 0 25 24" fill="none" xmlns="http://www.w3.org/2000/svg">
<path fill-rule="evenodd" clip-rule="evenodd" d="M3.59766 16.8228C3.59766 15.4608 4.53312 14.2805 5.84272 13.9064C6.4088 13.7446 7.01907 13.5601 7.5937 13.3663C7.69651 13.3316 7.74984 13.2206 7.73774 13.1128C7.73358 13.0758 7.73145 13.0381 7.73145 13C7.73145 12.4477 8.17916 12 8.73145 12C9.05092 12 9.3354 12.1498 9.51848 12.383C9.58546 12.4683 9.70135 12.5099 9.79885 12.4624C10.0923 12.3193 10.3898 12.1668 10.6872 12.0087C10.7654 11.9671 10.8044 11.8788 10.7995 11.7903C10.7984 11.7714 10.7979 11.7524 10.7979 11.7333C10.7979 11.181 11.2456 10.7333 11.7979 10.7333C12.0054 10.7333 12.1981 10.7965 12.3579 10.9047C12.4312 10.9543 12.5269 10.9661 12.6027 10.9206C13.4236 10.4283 14.1589 9.95746 14.6955 9.60517C15.2877 9.21636 15.9773 9 16.6858 9C17.1631 9 17.5262 9.42862 17.4477 9.89948L17.3477 10.5C17.2168 11.2852 17.8223 12 18.6183 12H20.5977C21.1499 12 21.5977 12.4477 21.5977 13V16C21.5977 17.1046 20.7022 18 19.5977 18H4.77485C4.1247 18 3.59766 17.473 3.59766 16.8228Z" fill="#ABABAB"/>
</svg>
