<svg width="25" height="24" viewBox="0 0 25 24" fill="none" xmlns="http://www.w3.org/2000/svg">
<path d="M7.29236 8.89481C7.19756 8.73982 7.13601 8.56681 7.1116 8.38678C7.08719 8.20674 7.10046 8.02359 7.15056 7.84895C7.18458 7.70395 7.24267 7.56568 7.32243 7.43989L9.16064 4.8102V2.68755C9.16043 2.5933 9.1796 2.50001 9.21697 2.41349C9.25433 2.32696 9.30908 2.24904 9.37783 2.18457C9.44657 2.1201 9.52784 2.07045 9.61658 2.0387C9.70532 2.00696 9.79964 1.9938 9.89368 2.00005C10.0708 2.01525 10.2355 2.09706 10.3546 2.22896C10.4738 2.36085 10.5385 2.53303 10.5356 2.71075V4.78614L10.9868 5.35161C11.1832 5.59793 11.4336 5.79579 11.7187 5.9299C12.0037 6.06401 12.3158 6.13078 12.6308 6.12505C12.9419 6.11625 13.2472 6.03908 13.525 5.89903C13.8029 5.75897 14.0466 5.55946 14.2387 5.31466L14.6606 4.78614V2.68755C14.6604 2.5933 14.6796 2.50001 14.717 2.41349C14.7543 2.32696 14.8091 2.24904 14.8778 2.18457C14.9466 2.1201 15.0278 2.07045 15.1166 2.0387C15.2053 2.00696 15.2996 1.9938 15.3937 2.00005C15.5708 2.01525 15.7355 2.09706 15.8546 2.22896C15.9738 2.36085 16.0385 2.53303 16.0356 2.71075V4.8102L17.8764 7.43989C17.9562 7.56568 18.0143 7.70395 18.0483 7.84895C18.0984 8.02359 18.1117 8.20674 18.0873 8.38678C18.0628 8.56681 18.0013 8.73982 17.9065 8.89481C17.9031 8.8998 17.8999 8.90496 17.897 8.91028L16.7059 10.7786C16.6747 10.8276 16.6315 10.8679 16.5804 10.8958C16.5293 10.9236 16.4719 10.9379 16.4138 10.9375H8.78251C8.72477 10.9375 8.66797 10.9229 8.61735 10.8951C8.56674 10.8673 8.52394 10.8273 8.4929 10.7786L7.30181 8.91028C7.29893 8.90496 7.29578 8.8998 7.29236 8.89481ZM20.0541 20.0289C20.0505 20.0188 20.0462 20.0091 20.0412 19.9997L16.5246 12.5102C16.4968 12.451 16.4527 12.4009 16.3974 12.3659C16.3422 12.3309 16.2781 12.3124 16.2127 12.3125H8.98361C8.91819 12.3124 8.85409 12.3309 8.79883 12.3659C8.74357 12.4009 8.69945 12.451 8.67165 12.5102L5.15509 19.9997C5.15007 20.0091 5.14576 20.0188 5.1422 20.0289C5.06728 20.2096 5.03132 20.4042 5.03665 20.5998C5.04198 20.7954 5.08849 20.9877 5.17314 21.1641C5.28604 21.3962 5.46197 21.5918 5.68081 21.7285C5.89965 21.8653 6.15257 21.9377 6.41064 21.9375H18.7856C19.0436 21.9376 19.2963 21.8651 19.515 21.7283C19.7336 21.5915 19.9094 21.396 20.0223 21.1641C20.1071 20.9877 20.1537 20.7955 20.1592 20.5999C20.1647 20.4043 20.1289 20.2097 20.0541 20.0289Z" fill="#ABABAB"/>
</svg>
