<svg width="24" height="24" viewBox="0 0 24 24" fill="none" xmlns="http://www.w3.org/2000/svg">
<path d="M3.67787 21C3.67534 20.9999 3.67144 20.9997 3.6663 20.9993C3.64731 20.9979 3.61366 20.9947 3.57065 20.9876C3.47989 20.9724 3.37417 20.944 3.28055 20.8972C3.19084 20.8524 3.13156 20.8008 3.09247 20.7422C3.05755 20.6898 3 20.575 3 20.3333C3 19.7568 3.31721 18.347 4.58211 17.0821C5.8177 15.8465 8.04422 14.6667 12 14.6667C15.9558 14.6667 18.1823 15.8465 19.4179 17.0821C20.6828 18.347 21 19.7568 21 20.3333C21 20.575 20.9425 20.6898 20.9075 20.7422C20.8684 20.8008 20.8092 20.8524 20.7195 20.8972C20.6258 20.944 20.5201 20.9724 20.4293 20.9876C20.3863 20.9947 20.3527 20.9979 20.3337 20.9993C20.3286 20.9997 20.3247 20.9999 20.3221 21H3.67787ZM3.68122 21.0001C3.68118 21.0001 3.68112 21.0001 3.68105 21.0001C3.68126 21.0001 3.68133 21.0001 3.68126 21.0001H3.68122ZM20.3187 21.0001C20.3187 21.0001 20.3187 21.0001 20.319 21.0001C20.3189 21.0001 20.3188 21.0001 20.3188 21.0001H20.3187ZM14.8284 9.82843C14.0783 10.5786 13.0609 11 12 11C10.9391 11 9.92172 10.5786 9.17157 9.82843C8.42143 9.07828 8 8.06087 8 7C8 5.93913 8.42143 4.92172 9.17157 4.17157C9.92172 3.42143 10.9391 3 12 3C13.0609 3 14.0783 3.42143 14.8284 4.17157C15.5786 4.92172 16 5.93913 16 7C16 8.06087 15.5786 9.07828 14.8284 9.82843Z" stroke="#121212" stroke-width="2"/>
</svg>
