<svg width="25" height="24" viewBox="0 0 25 24" fill="none" xmlns="http://www.w3.org/2000/svg">
<g clip-path="url(#clip0_2858_6448)">
<path d="M6.09766 18.5V20C6.09766 21.1046 6.99309 22 8.09766 22H17.0977C18.2022 22 19.0977 21.1046 19.0977 20V18.5M6.09766 18.5H4.59766C3.49309 18.5 2.59766 17.6046 2.59766 16.5V8.5C2.59766 7 3.59766 5.25 5.09766 4C6.59766 2.75 8.59766 2 8.59766 2H16.5977C16.5977 2 18.5977 2.75 20.0977 4C21.5977 5.25 22.5977 7 22.5977 8.5V16.5C22.5977 17.6046 21.7022 18.5 20.5977 18.5H19.0977M12.5977 8.5C12.5977 13.7721 12.5977 22 12.5977 22V8.5ZM12.5977 8.5C11.0356 5.96159 8.59766 2 8.59766 2L12.5977 8.5ZM16.5977 2C16.5977 2 14.1598 5.96159 12.5977 8.5L16.5977 2Z" fill="#ABABAB"/>
<path d="M8.59766 2C8.59766 2 6.59766 2.75 5.09766 4C3.59766 5.25 2.59766 7 2.59766 8.5V16.5C2.59766 17.6046 3.49309 18.5 4.59766 18.5H6.09766V20C6.09766 21.1046 6.99309 22 8.09766 22H17.0977C18.2022 22 19.0977 21.1046 19.0977 20V18.5H20.5977C21.7022 18.5 22.5977 17.6046 22.5977 16.5V8.5C22.5977 7 21.5977 5.25 20.0977 4C18.5977 2.75 16.5977 2 16.5977 2M8.59766 2H16.5977M8.59766 2C8.59766 2 11.0356 5.96159 12.5977 8.5M16.5977 2C16.5977 2 14.1598 5.96159 12.5977 8.5M12.5977 8.5C12.5977 13.7721 12.5977 22 12.5977 22" stroke="white" stroke-width="1.5" stroke-linecap="round" stroke-linejoin="round"/>
</g>
<defs>
<clipPath id="clip0_2858_6448">
<rect width="24" height="24" fill="white" transform="translate(0.597656)"/>
</clipPath>
</defs>
</svg>
