<svg width="24" height="24" viewBox="0 0 24 24" fill="none" xmlns="http://www.w3.org/2000/svg">
<path d="M5 6C4.46957 6 3.96086 6.21071 3.58579 6.58579C3.21071 6.96086 3 7.46957 3 8V18C3 18.5304 3.21071 19.0391 3.58579 19.4142C3.96086 19.7893 4.46957 20 5 20H19C19.5304 20 20.0391 19.7893 20.4142 19.4142C20.7893 19.0391 21 18.5304 21 18V8C21 7.46957 20.7893 6.96086 20.4142 6.58579C20.0391 6.21071 19.5304 6 19 6H5ZM7.04464 17C6.21249 17 5.7444 16.0429 6.25529 15.3861L6.97502 14.4607C7.75872 13.4531 9.27297 13.4276 10.0902 14.4082L10.2049 14.5459C10.6135 15.0362 11.3706 15.0235 11.7625 14.5197L12.8924 13.0669C13.702 12.026 15.2799 12.0398 16.0711 13.0948L17.8 15.4C18.2944 16.0592 17.824 17 17 17H7.04464ZM18 3C18.5304 3 19.0391 3.21071 19.4142 3.58579C19.7893 3.96086 20 4.46957 20 5H4C4 4.46957 4.21071 3.96086 4.58579 3.58579C4.96086 3.21071 5.46957 3 6 3H18Z" fill="black"/>
</svg>
