<svg width="24" height="24" viewBox="0 0 24 24" fill="none" xmlns="http://www.w3.org/2000/svg">
<path d="M9.00001 15L15 9M11 6L11.463 5.464C12.4008 4.52633 13.6727 3.9996 14.9989 3.99969C16.325 3.99979 17.5968 4.52669 18.5345 5.4645C19.4722 6.40231 19.9989 7.67419 19.9988 9.00035C19.9987 10.3265 19.4718 11.5983 18.534 12.536L18 13M13 18L12.603 18.534C11.654 19.4717 10.3736 19.9976 9.03951 19.9976C7.70538 19.9976 6.42502 19.4717 5.47601 18.534C5.00813 18.0717 4.63665 17.5212 4.38311 16.9143C4.12958 16.3074 3.99902 15.6562 3.99902 14.9985C3.99902 14.3408 4.12958 13.6896 4.38311 13.0827C4.63665 12.4758 5.00813 11.9253 5.47601 11.463L6.00001 11" stroke="#121212" stroke-width="2" stroke-linecap="round" stroke-linejoin="round"/>
</svg>
